<svg height="480pt" viewBox="-60 0 480 480" width="480pt" xmlns="http://www.w3.org/2000/svg"><path d="m144 288h16v184h-16zm0 0" fill="#787680"/><path d="m144 288h16v16h-16zm0 0" fill="#57565c"/><path d="m209.808594 112h-209.808594l57 72h131.902344zm0 0" fill="#e6e7e8"/><path d="m248 112h-38.191406l-20.90625 72h58.105468l12.351563-15.601562 9.921875-12.558594 34.71875-43.839844zm0 0" fill="#e6e7e8"/><path d="m247.039062 184-88.800781 112.078125c-1.492187 1.929687-3.796875 3.058594-6.238281 3.058594s-4.746094-1.128907-6.238281-3.058594l-29.523438-37.277344-59.277343-74.800781zm0 0" fill="#ffb655"/><path d="m304 56c-30.929688 0-56 25.070312-56 56h56l-34.71875 43.839844c9.828125 7.929687 22.089844 12.222656 34.71875 12.160156 30.929688 0 56-25.070312 56-56s-25.070312-56-56-56zm0 0" fill="#ffde55"/><path d="m247.039062 184-88.800781 112.078125c-1.492187 1.929687-3.796875 3.058594-6.238281 3.058594s-4.746094-1.128907-6.238281-3.058594l-29.523438-37.277344c38.957031-21.800781 76.019531-46.820312 110.800781-74.800781zm0 0" fill="#ffa733"/><path d="m80 464h144v16h-144zm0 0" fill="#57565c"/><path d="m175.679688 258.230469-15.359376-4.460938 72-248c.992188-3.417969 4.121094-5.769531 7.679688-5.769531h32v16h-25.992188zm0 0" fill="#ff9478"/></svg>