<svg id="Capa_1" enable-background="new 0 0 512 512" height="512" viewBox="0 0 512 512" width="512" xmlns="http://www.w3.org/2000/svg"><g><g><path d="m502 61.721v-35.769c0-8.81-7.14-15.952-15.949-15.952h-185.936c-8.808 0-15.948 7.142-15.948 15.952v166.848c0 8.81 7.14 15.952 15.948 15.952h25.84l6.21 29.467 38.897-29.467h114.989c8.808 0 15.949-7.142 15.949-15.952v-40.666" fill="#faf7f5"/><path clip-rule="evenodd" d="m59.02 469.255c-28.4-8.833-49.02-35.323-49.02-66.629v-156.098c0-78.036 63.26-141.296 141.296-141.296 78.036 0 141.296 63.261 141.296 141.296v156.098c0 31.274-20.578 57.742-48.932 66.602" fill="#fff2a0" fill-rule="evenodd"/><path d="m182.957 422.405h27.369c17.715 0 32.075 14.36 32.075 32.075v47.52h-182.209v-47.52c0-17.714 14.36-32.075 32.075-32.075h30.946" fill="#c193dc"/><path d="m281.064 276.135c-1.224-11.187-9.675-19.979-20.814-21.583-3.802-.548-7.468-.223-10.83.801v-16.894c-10.003 13.016-25.725 16.973-43.406 16.973-19.984 0-37.466-15.855-47.015-33.775-4.083-7.662-11.999-12.502-20.681-12.502-9.381 0-17.864 5.612-21.513 14.254-5.004 11.851-10.804 19.303-27.43 19.303-22.569 0-36.201.202-36.201.202v12.438c-3.363-1.024-7.032-1.349-10.836-.8-11.139 1.607-19.588 10.402-20.809 21.59-1.619 14.841 9.957 27.395 24.465 27.395 2.498 0 4.908-.372 7.18-1.064v20.337c0 38.688 31.351 70.05 70.025 70.05h3.142v29.544h-10.447l35.403 44.084 36.427-44.084h-11.471v-29.544h3.142c38.674 0 70.025-31.363 70.025-70.05v-20.337c2.272.692 4.682 1.064 7.18 1.064 14.51.001 26.088-12.558 24.464-27.402z" fill="#ffdcd5"/><path d="m364.31 59.008c12.936 0 21.125 7.728 25.718 14.21 1.191 1.682 2.205 3.369 3.056 4.956.851-1.587 1.864-3.274 3.056-4.956 4.592-6.483 12.782-14.21 25.718-14.21 9.197 0 17.598 3.785 23.653 10.657 5.776 6.556 8.957 15.336 8.957 24.723 0 10.218-3.988 19.722-12.551 29.908-7.653 9.104-47.987 38.401-48.833 38.401-.845 0-41.18-29.297-48.833-38.401-8.563-10.187-12.551-19.69-12.551-29.908 0-9.387 3.181-18.167 8.957-24.723 6.055-6.872 14.455-10.657 23.653-10.657z" fill="#ff7d97"/><path d="m348.909 380.879c8.261 0 13.49 4.935 16.423 9.074.761 1.074 1.408 2.151 1.952 3.165.543-1.014 1.19-2.091 1.952-3.165 2.932-4.14 8.162-9.074 16.423-9.074 5.873 0 11.238 2.417 15.105 6.806 3.688 4.186 5.72 9.793 5.72 15.787 0 6.525-2.547 12.594-8.015 19.099-4.887 5.814-30.644 24.523-31.184 24.523s-26.297-18.708-31.184-24.522c-5.468-6.505-8.015-12.574-8.015-19.099 0-5.994 2.031-11.601 5.72-15.788 3.866-4.39 9.23-6.806 15.103-6.806z" fill="#ff7d97"/><path d="m427.308 255.887c10.717 0 17.502 6.402 21.306 11.773.987 1.394 1.827 2.791 2.532 4.106.705-1.315 1.544-2.712 2.532-4.106 3.805-5.371 10.589-11.773 21.306-11.773 7.62 0 14.579 3.136 19.596 8.829 4.785 5.431 7.421 12.705 7.421 20.482 0 8.465-3.304 16.339-10.398 24.778-6.34 7.543-39.756 31.814-40.456 31.814-.701 0-34.116-24.271-40.456-31.814-7.094-8.439-10.398-16.313-10.398-24.778 0-7.777 2.635-15.051 7.421-20.482 5.015-5.694 11.974-8.829 19.594-8.829z" fill="#ff9eb1"/></g><g><path d="m486.052 0h-185.937c-14.308 0-25.948 11.642-25.948 25.953v132.387c-27.49-38.193-72.326-63.107-122.871-63.107-83.425-.001-151.296 67.87-151.296 151.295v156.098c0 33.049 19.927 62.095 50.191 74.107v25.267c0 5.523 4.478 10 10 10h182.21c5.522 0 10-4.477 10-10v-25.267c30.26-12.014 50.191-41.071 50.191-74.107v-156.098c0-9.485-.878-18.77-2.556-27.776h.078 17.728l4.537 21.529c.706 3.352 3.078 6.108 6.287 7.306 1.136.424 2.319.632 3.497.632 2.149 0 4.276-.693 6.04-2.029l36.218-27.438h111.63c14.308 0 25.948-11.642 25.948-25.953v-40.666c0-5.523-4.478-10-10-10s-10 4.477-10 10v40.667c0 3.282-2.668 5.953-5.948 5.953h-114.99c-2.181 0-4.301.712-6.039 2.029l-26.324 19.943-2.958-14.035c-.975-4.626-5.057-7.938-9.785-7.938h-25.84c-3.28 0-5.948-2.67-5.948-5.953v-166.846c0-3.282 2.668-5.953 5.948-5.953h185.937c3.28 0 5.948 2.67 5.948 5.953v35.769c0 5.523 4.478 10 10 10s10-4.477 10-10v-35.769c0-14.311-11.641-25.953-25.948-25.953zm-334.755 115.232c72.396 0 131.296 58.899 131.296 131.296v9.444c-5.272-5.984-12.595-10.12-20.918-11.318-.753-.108-1.505-.193-2.255-.253v-.838c.014-.214.022-.43.022-.648v-25.305c0-5.523-4.478-10-10-10-5.523 0-10 4.477-10 10v17.144c-6.973 7.27-17.705 10.679-33.428 10.679-16.987 0-31.189-15.341-38.191-28.478-5.85-10.979-17.156-17.799-29.506-17.799-13.441 0-25.501 7.994-30.725 20.364-4.249 10.061-7.316 13.193-18.219 13.193-11.006 0-19.943.049-26.201.098v-15.201c0-5.523-4.478-10-10-10-5.523 0-10 4.477-10 10v26.79c-.753.061-1.508.146-2.264.255-8.32 1.2-15.639 5.335-20.909 11.317v-9.444c.001-72.397 58.9-131.296 131.298-131.296zm28.098 267.629h-3.143c-5.522 0-10 4.477-10 10v29.544c0 2.686 1.059 5.124 2.781 6.92l-17.626 21.331-17.468-21.751c1.497-1.749 2.401-4.019 2.401-6.501v-29.544c0-5.523-4.478-10-10-10h-3.143c-33.098 0-60.025-26.938-60.025-60.05v-20.337c0-3.168-1.501-6.149-4.047-8.035-2.544-1.885-5.833-2.454-8.865-1.531-1.375.418-2.811.63-4.268.63-4.146 0-8.112-1.772-10.884-4.863-2.811-3.134-4.104-7.199-3.64-11.448.729-6.687 5.67-11.821 12.295-12.777 2.232-.322 4.416-.164 6.496.469 3.032.924 6.321.354 8.865-1.531 2.546-1.886 4.047-4.867 4.047-8.035v-2.542c6.215-.05 15.154-.099 26.201-.099 22.771 0 31.068-12.213 36.643-25.413 2.09-4.948 6.918-8.145 12.301-8.145 4.944 0 9.487 2.761 11.855 7.205 10.065 18.888 30.021 39.072 55.841 39.072 13.526 0 24.796-2.216 33.987-6.72.658 1.845 1.851 3.48 3.466 4.676 2.545 1.886 5.833 2.456 8.866 1.531 2.076-.633 4.261-.791 6.491-.469 6.625.954 11.567 6.087 12.299 12.773.465 4.25-.827 8.316-3.638 11.451-2.772 3.092-6.739 4.865-10.886 4.865-1.457 0-2.893-.212-4.268-.63-3.034-.922-6.32-.353-8.865 1.531-2.546 1.886-4.047 4.867-4.047 8.035v20.337c.003 33.112-26.925 60.051-60.022 60.051zm-159.395 19.765v-100.846c.073.083.146.166.22.248 5.929 6.611 14.173 10.674 22.953 11.394v9.389c0 41.828 32.241 76.267 73.168 79.759v9.835h-.447c-.019 0-.037 0-.056.001h-23.571c-23.2 0-42.075 18.874-42.075 42.075v.132c-18.46-10.436-30.192-30.032-30.192-51.987zm212.401 89.374h-162.21v-37.52c0-12.172 9.903-22.075 22.075-22.075h18.832l32.401 40.346c1.883 2.344 4.721 3.717 7.727 3.738h.069c2.981 0 5.809-1.331 7.709-3.63l33.426-40.454h17.894c12.172 0 22.075 9.903 22.075 22.075v37.52zm20-37.389v-.131c0-23.2-18.875-42.075-42.075-42.075h-22.549c-.018 0-.036-.001-.054-.001h-1.472v-9.835c40.927-3.492 73.168-37.931 73.168-79.759v-9.389c8.782-.721 17.027-4.785 22.957-11.398.072-.081.144-.162.216-.244v100.846c.001 21.947-11.733 41.549-30.191 51.986z"/><path d="m510.31 101.56c-2.372-3.632-7.08-5.274-11.211-4.014-3.929 1.198-6.819 4.801-7.079 8.912-.259 4.102 2.104 8.063 5.851 9.762 3.803 1.725 8.405.847 11.308-2.153 3.209-3.317 3.762-8.671 1.131-12.507z"/><path d="m421.857 49.008c-10.911 0-20.898 4.32-28.774 12.314-7.878-7.994-17.865-12.314-28.773-12.314-12.11 0-23.175 4.988-31.157 14.046-7.386 8.384-11.453 19.512-11.453 31.333 0 12.705 4.733 24.252 14.897 36.342 3.774 4.49 13.389 12.614 28.577 24.145 23.474 17.822 24.413 17.822 27.91 17.822s4.436 0 27.91-17.822c15.188-11.531 24.803-19.655 28.577-24.145 10.024-11.925 14.897-23.813 14.897-36.342 0-11.822-4.067-22.949-11.454-31.333-7.982-9.057-19.046-14.046-31.157-14.046zm12.405 68.853c-4.882 5.807-30.035 24.837-41.179 32.795-11.143-7.959-36.298-26.989-41.178-32.794-7.059-8.397-10.206-15.637-10.206-23.474 0-6.951 2.295-13.383 6.46-18.112 4.13-4.687 9.865-7.268 16.15-7.268 6.954 0 12.861 3.361 17.558 9.99.851 1.201 1.658 2.513 2.402 3.9 1.74 3.248 5.126 5.275 8.812 5.276h.002c3.684 0 7.069-2.025 8.811-5.271.749-1.396 1.558-2.708 2.405-3.905 4.695-6.629 10.603-9.99 17.558-9.99 6.285 0 12.021 2.581 16.149 7.268 4.167 4.729 6.461 11.162 6.461 18.112.001 7.837-3.147 15.076-10.205 23.473z"/><path d="m385.658 370.878c-6.815 0-13.122 2.294-18.374 6.586-5.253-4.292-11.56-6.586-18.375-6.586-8.786 0-16.815 3.621-22.607 10.195-5.3 6.015-8.218 13.969-8.218 22.398 0 8.889 3.39 17.241 10.36 25.533.963 1.146 3.892 4.63 18.83 15.972 15.959 12.116 16.498 12.116 20.009 12.116 3.51 0 4.049 0 20.008-12.116 14.939-11.342 17.867-14.826 18.831-15.972 6.971-8.294 10.359-16.646 10.359-25.533 0-8.43-2.918-16.384-8.217-22.399-5.791-6.573-13.82-10.194-22.606-10.194zm5.156 45.257c-2.569 3.056-15.881 13.238-23.529 18.811-7.648-5.572-20.959-15.754-23.529-18.811-5.025-5.978-5.67-9.908-5.67-12.664 0-3.558 1.145-6.817 3.225-9.177 1.969-2.235 4.597-3.416 7.6-3.416 1.193 0 4.823 0 8.262 4.854.458.646.896 1.357 1.302 2.114 1.742 3.246 5.128 5.271 8.812 5.271h.004c3.686-.001 7.071-2.03 8.812-5.278.402-.752.839-1.461 1.296-2.106 3.439-4.855 7.069-4.855 8.263-4.855 3.003 0 5.632 1.182 7.602 3.417 2.078 2.359 3.223 5.618 3.223 9.177-.005 2.756-.649 6.686-5.673 12.663z"/><path d="m474.983 245.887c-8.956 0-17.19 3.331-23.837 9.522-6.648-6.191-14.882-9.522-23.839-9.522-10.532 0-20.156 4.339-27.1 12.218-6.395 7.259-9.916 16.88-9.916 27.092 0 10.802 4.168 21.011 12.743 31.213 3.209 3.817 11.267 10.635 23.95 20.265 19.907 15.114 20.64 15.114 24.16 15.114s4.253 0 24.16-15.114c12.685-9.63 20.742-16.449 23.951-20.266 8.576-10.2 12.745-20.41 12.745-31.211 0-10.212-3.522-19.834-9.918-27.092-6.942-7.879-16.566-12.219-27.099-12.219zm8.963 57.654c-3.922 4.666-23.314 19.319-32.801 26.152-9.486-6.833-28.878-21.485-32.801-26.152-5.569-6.625-8.053-12.283-8.053-18.343 0-5.341 1.748-10.268 4.923-13.871 3.136-3.559 7.317-5.439 12.093-5.439 1.928 0 7.796 0 13.147 7.552.661.934 1.293 1.961 1.879 3.052 1.741 3.248 5.127 5.274 8.813 5.274s7.071-2.027 8.814-5.274c.583-1.087 1.215-2.115 1.879-3.051 5.351-7.553 11.218-7.553 13.146-7.553 4.775 0 8.957 1.881 12.093 5.44 3.175 3.604 4.924 8.53 4.924 13.871-.002 6.059-2.485 11.716-8.056 18.342z"/><path d="m113.175 279.079c-5.522 0-10 4.477-10 10v9.759c0 5.523 4.478 10 10 10 5.523 0 10-4.477 10-10v-9.759c0-5.523-4.478-10-10-10z"/><path d="m189.418 279.079c-5.523 0-10 4.477-10 10v9.759c0 5.523 4.477 10 10 10 5.522 0 10-4.477 10-10v-9.759c0-5.523-4.478-10-10-10z"/><path d="m160.189 332.919c-2.375 2.376-5.533 3.685-8.892 3.685s-6.517-1.309-8.892-3.685c-3.905-3.906-10.236-3.908-14.142-.002-3.906 3.904-3.907 10.236-.003 14.142 6.152 6.155 14.334 9.545 23.036 9.545 8.701 0 16.883-3.39 23.036-9.544 3.904-3.906 3.903-10.238-.002-14.143-3.906-3.904-10.236-3.903-14.141.002z"/></g></g></svg>