<svg id="Capa_1" enable-background="new 0 0 512 512" height="512" viewBox="0 0 512 512" width="512" xmlns="http://www.w3.org/2000/svg"><g><g><path d="m348.907 390.703c8.26 0 13.49 4.935 16.423 9.074.761 1.074 1.408 2.151 1.952 3.165.543-1.014 1.191-2.091 1.952-3.165 2.933-4.14 8.162-9.074 16.423-9.074 5.873 0 11.238 2.417 15.105 6.806 3.688 4.186 5.72 9.793 5.72 15.787 0 6.525-2.547 12.594-8.015 19.099-4.887 5.814-30.644 24.522-31.184 24.522s-26.297-18.708-31.184-24.522c-5.468-6.505-8.015-12.574-8.015-19.099 0-5.994 2.031-11.601 5.72-15.788 3.866-4.388 9.23-6.805 15.103-6.805z" fill="#ff7d97"/><path d="m427.306 265.711c10.717 0 17.502 6.402 21.306 11.773.987 1.394 1.827 2.791 2.532 4.106.705-1.315 1.544-2.712 2.532-4.106 3.805-5.371 10.589-11.773 21.306-11.773 7.62 0 14.579 3.136 19.596 8.829 4.785 5.431 7.421 12.705 7.421 20.482 0 8.465-3.304 16.339-10.398 24.778-6.34 7.543-39.756 31.814-40.456 31.814-.701 0-34.116-24.271-40.456-31.814-7.094-8.439-10.398-16.312-10.398-24.778 0-7.777 2.635-15.051 7.421-20.482 5.015-5.693 11.974-8.829 19.594-8.829z" fill="#ff9eb1"/><g><path d="m501.998 61.721v-35.769c0-8.81-7.14-15.952-15.949-15.952h-200.936c-8.808 0-15.948 7.142-15.948 15.952v166.848c0 8.81 7.14 15.952 15.948 15.952h40.84l6.21 29.467 38.897-29.467h114.989c8.808 0 15.949-7.142 15.949-15.952v-40.666" fill="#faf7f5"/><path d="m364.307 59.349c12.936 0 21.125 7.728 25.718 14.21 1.191 1.682 2.205 3.369 3.056 4.956.851-1.587 1.864-3.274 3.056-4.956 4.592-6.483 12.782-14.21 25.718-14.21 9.197 0 17.598 3.785 23.653 10.657 5.776 6.556 8.957 15.336 8.957 24.723 0 10.218-3.988 19.722-12.551 29.908-7.653 9.104-47.987 38.401-48.833 38.401-.845 0-41.18-29.297-48.833-38.401-8.563-10.187-12.551-19.69-12.551-29.908 0-9.387 3.181-18.167 8.957-24.723 6.056-6.873 14.456-10.657 23.653-10.657z" fill="#ff7d97"/></g><g><path clip-rule="evenodd" d="m268.564 268.106s-.037-40.328-.037-90.553c0-44.552-103.954-91.915-149.912-35.439 0-16.263-5.673-22.807-18.509-25.343-13.201-2.608-26.89 10.213-38.302 17.342-19.207 11.999-50.533 3.609-50.533 32.136v101.856" fill="#fff2a0" fill-rule="evenodd"/><path d="m171.578 422.405h27.369c17.714 0 32.075 14.36 32.075 32.075v47.52h-182.209v-47.52c0-17.714 14.36-32.075 32.075-32.075h30.946" fill="#ccf5fc"/><path d="m269.685 276.135c-1.224-11.188-9.677-19.981-20.817-21.584-3.801-.547-7.466-.222-10.827.801v-16.894c-10.003 13.016-25.725 16.973-43.406 16.973-19.984 0-37.466-15.855-47.015-33.775-4.083-7.662-11.999-12.502-20.681-12.502-9.382 0-85.145 40.909-85.145 40.909v5.288c-3.363-1.024-7.032-1.349-10.836-.8-11.139 1.607-19.589 10.403-20.809 21.591-1.619 14.841 9.957 27.395 24.465 27.395 2.498 0 4.908-.372 7.18-1.064v20.337c0 38.688 31.352 70.05 70.026 70.05h3.142v29.544h-10.447l15.38 19.151c10.335 12.869 29.879 13.005 40.393.282l16.058-19.433h-11.471v-29.544h3.142c38.674 0 70.025-31.363 70.025-70.05v-20.337c2.272.692 4.682 1.064 7.18 1.064 14.509.001 26.087-12.558 24.463-27.402z" fill="#ffdcd5"/></g></g><g><g><g><path d="m385.656 380.703c-6.816 0-13.122 2.293-18.374 6.585-5.252-4.292-11.559-6.585-18.374-6.585-8.787 0-16.816 3.62-22.608 10.194-5.299 6.014-8.217 13.969-8.217 22.398 0 8.888 3.389 17.239 10.361 25.533.962 1.146 3.892 4.63 18.83 15.972 15.959 12.116 16.498 12.116 20.008 12.116s4.05 0 20.009-12.116c14.938-11.342 17.867-14.826 18.83-15.972 6.971-8.293 10.36-16.645 10.36-25.533 0-8.43-2.918-16.385-8.217-22.399-5.794-6.573-13.822-10.193-22.608-10.193zm5.154 45.257c-2.57 3.057-15.881 13.238-23.529 18.811-7.648-5.572-20.959-15.754-23.529-18.811-5.025-5.979-5.67-9.908-5.67-12.664 0-3.559 1.145-6.818 3.223-9.178 1.969-2.234 4.597-3.415 7.602-3.415 1.193 0 4.824 0 8.262 4.854.456.645.893 1.354 1.298 2.11 1.742 3.248 5.128 5.275 8.813 5.275 3.686 0 7.072-2.027 8.814-5.275.404-.754.841-1.464 1.298-2.109 3.439-4.854 7.07-4.854 8.263-4.854 3.004 0 5.632 1.182 7.601 3.415 2.079 2.359 3.223 5.618 3.223 9.178.001 2.755-.643 6.684-5.669 12.663z"/><path d="m474.981 255.711c-8.957 0-17.191 3.33-23.838 9.522-6.646-6.191-14.881-9.522-23.838-9.522-10.532 0-20.156 4.339-27.098 12.219-6.396 7.259-9.918 16.88-9.918 27.093 0 10.801 4.168 21.011 12.744 31.212 3.208 3.817 11.267 10.636 23.951 20.266 19.907 15.113 20.64 15.113 24.16 15.113 3.521 0 4.253 0 24.16-15.114 12.684-9.63 20.742-16.447 23.951-20.265 8.575-10.201 12.744-20.411 12.744-31.212 0-10.211-3.522-19.833-9.918-27.094-6.944-7.879-16.568-12.218-27.1-12.218zm8.964 57.654c-3.923 4.666-23.315 19.318-32.801 26.151-9.486-6.832-28.878-21.484-32.801-26.151-5.569-6.626-8.053-12.283-8.053-18.343 0-5.342 1.749-10.268 4.924-13.871 3.136-3.56 7.317-5.44 12.092-5.44 1.928 0 7.796 0 13.146 7.555.664.936 1.296 1.963 1.879 3.051 1.742 3.248 5.129 5.274 8.814 5.273s7.071-2.027 8.812-5.275c.582-1.086 1.214-2.112 1.879-3.05 5.35-7.554 11.217-7.554 13.145-7.554 4.775 0 8.957 1.881 12.092 5.439 3.175 3.605 4.924 8.531 4.924 13.872.001 6.06-2.483 11.717-8.052 18.343z"/><path d="m486.049 0h-200.936c-14.308 0-25.948 11.642-25.948 25.952v112.754c-10.901-10.47-25.791-19.392-41.991-25.151-28.038-9.965-64.858-11.72-92.443 8.889-4.124-8.254-11.591-13.29-22.686-15.482-14.57-2.879-27.778 6.384-38.391 13.828-2.54 1.781-4.939 3.463-7.149 4.844-5.132 3.207-12.289 4.725-19.209 6.193-7.973 1.691-16.218 3.44-22.994 7.926-8.646 5.724-13.031 14.639-13.031 26.498v101.856c0 .398.024.79.069 1.175-.533 1.866-.915 3.796-1.132 5.777-1.072 9.827 2.075 19.657 8.633 26.97 5.929 6.611 14.172 10.674 22.952 11.395v9.388c0 41.828 32.241 76.267 73.168 79.759v9.836h-24.074c-23.2 0-42.075 18.874-42.075 42.074v47.519c0 5.522 4.477 10 10 10h182.209c5.523 0 10-4.478 10-10v-47.521c0-23.2-18.874-42.074-42.075-42.074h-24.074v-9.836c40.927-3.492 73.167-37.931 73.167-79.759v-9.388c8.782-.721 17.027-4.785 22.957-11.398 6.558-7.315 9.703-17.148 8.628-26.978-.216-1.977-.598-3.904-1.131-5.766.046-.389.069-.784.069-1.184 0-.001-.019-20.373-.03-50.19 2.102.551 4.307.845 6.579.845h32.727l4.538 21.53c.706 3.351 3.079 6.107 6.287 7.306 1.136.424 2.319.632 3.497.632 2.149 0 4.276-.693 6.04-2.029l36.219-27.438h111.629c14.308 0 25.949-11.643 25.949-25.952v-40.666c0-5.523-4.477-10-10-10s-10 4.477-10 10v40.666c0 3.282-2.668 5.952-5.949 5.952h-114.988c-2.18 0-4.301.713-6.039 2.029l-26.326 19.943-2.958-14.035c-.975-4.626-5.057-7.938-9.785-7.938h-40.839c-3.28 0-5.948-2.67-5.948-5.952v-166.847c0-3.282 2.668-5.952 5.948-5.952h200.936c3.28 0 5.949 2.67 5.949 5.952v35.77c0 5.522 4.477 10 10 10s10-4.478 10-10v-35.77c0-14.31-11.641-25.952-25.949-25.952zm-444.603 151.391c8.217-1.743 17.53-3.719 25.656-8.796 2.662-1.662 5.394-3.579 8.036-5.432 7.891-5.534 16.841-11.811 23.029-10.581 6.865 1.356 10.448 2.663 10.448 15.532 0 4.231 2.664 8.005 6.65 9.423 3.988 1.416 8.434.171 11.106-3.111 21.371-26.261 57.458-25.496 84.104-16.026 27.394 9.738 48.052 29.149 48.052 45.153 0 27.921.012 52.783.022 69.361-2.603-1.077-5.369-1.846-8.257-2.261-.751-.107-1.502-.192-2.251-.253v-.829c.014-.217.022-.435.022-.656v-25.306c0-5.522-4.477-10-10-10s-10 4.478-10 10v17.143c-6.973 7.271-17.704 10.679-33.428 10.679-16.987 0-31.19-15.341-38.19-28.478-5.851-10.979-17.156-17.799-29.506-17.799-3.289 0-8.26 0-50.623 21.541-8.877 4.514-17.576 9.054-24.522 12.716v-15.803c0-5.522-4.477-10-10-10s-10 4.478-10 10v26.792c-.753.061-1.508.145-2.264.253-2.888.417-5.656 1.188-8.259 2.266v-80.67c0-9.603 3.822-11.39 20.175-14.858zm179.576 303.088v37.521h-162.209v-37.521c0-12.172 9.903-22.074 22.075-22.074h18.832l12.378 15.412c6.816 8.488 16.97 13.4 27.856 13.477.086 0 .171.001.256.001 10.79 0 20.906-4.761 27.785-13.087l13.058-15.803h17.894c12.172 0 22.075 9.903 22.075 22.074zm35.084-165.806c-2.772 3.092-6.739 4.865-10.885 4.865-1.456 0-2.892-.212-4.269-.631-3.03-.923-6.319-.353-8.865 1.531-2.546 1.887-4.046 4.867-4.046 8.035v20.337c0 33.111-26.927 60.05-60.025 60.05h-3.142c-5.523 0-10 4.477-10 10v29.545c0 2.685 1.059 5.123 2.781 6.92l-5.076 6.143c-3.063 3.708-7.566 5.827-12.37 5.827-.038 0-.076 0-.114-.001-4.847-.033-9.367-2.221-12.402-6l-5.13-6.388c1.497-1.749 2.401-4.019 2.401-6.501v-29.545c0-5.523-4.477-10-10-10h-3.142c-33.098 0-60.026-26.939-60.026-60.05v-20.337c0-3.168-1.501-6.148-4.047-8.035-2.545-1.885-5.833-2.453-8.865-1.531-1.375.419-2.811.631-4.268.631-4.145 0-8.112-1.772-10.883-4.863-2.811-3.134-4.104-7.199-3.641-11.448.729-6.687 5.671-11.821 12.294-12.777 2.231-.32 4.418-.165 6.496.47 3.031.922 6.32.356 8.866-1.531 2.358-1.746 3.819-4.431 4.024-7.334 32.616-17.47 68.268-35.269 75.632-36.892 4.764.166 9.099 2.892 11.393 7.197 10.066 18.889 30.021 39.071 55.841 39.071 13.526 0 24.796-2.216 33.986-6.72.658 1.845 1.853 3.482 3.467 4.677 2.546 1.888 5.836 2.455 8.866 1.531 2.076-.634 4.26-.791 6.49-.47 6.626.953 11.568 6.086 12.3 12.773.462 4.25-.83 8.316-3.641 11.451z"/><path d="m510.308 101.56c-2.35-3.585-6.952-5.228-11.054-4.055-3.971 1.136-6.865 4.679-7.219 8.79-.358 4.155 2.048 8.207 5.84 9.916 3.755 1.693 8.271.884 11.193-2.03 3.336-3.33 3.847-8.708 1.24-12.621z"/><path d="m421.855 49.349c-10.909 0-20.896 4.32-28.773 12.315-7.877-7.995-17.864-12.315-28.774-12.315-12.111 0-23.176 4.988-31.156 14.046-7.387 8.384-11.455 19.512-11.455 31.334 0 12.53 4.873 24.419 14.896 36.343 3.774 4.49 13.389 12.613 28.577 24.145 23.474 17.822 24.414 17.822 27.911 17.822s4.437 0 27.91-17.822c15.188-11.531 24.803-19.654 28.577-24.145 10.024-11.924 14.897-23.813 14.897-36.343 0-11.822-4.068-22.95-11.455-31.334-7.981-9.058-19.045-14.046-31.155-14.046zm12.404 68.853c-4.881 5.806-30.034 24.836-41.178 32.795-11.144-7.959-36.297-26.988-41.178-32.795-7.059-8.396-10.206-15.636-10.206-23.474 0-6.951 2.294-13.384 6.461-18.112 4.129-4.687 9.864-7.268 16.149-7.268 6.955 0 12.862 3.361 17.558 9.992.851 1.2 1.659 2.513 2.402 3.899 1.742 3.249 5.129 5.276 8.815 5.276s7.073-2.028 8.814-5.278c.742-1.384 1.549-2.695 2.401-3.897 4.696-6.63 10.603-9.991 17.558-9.991 6.285 0 12.021 2.581 16.15 7.268 4.166 4.729 6.461 11.161 6.461 18.112-.001 7.837-3.148 15.077-10.207 23.473z"/><path d="m101.796 279.079c-5.523 0-10 4.478-10 10v9.759c0 5.523 4.477 10 10 10s10-4.477 10-10v-9.759c0-5.522-4.477-10-10-10z"/><path d="m178.039 279.079c-5.523 0-10 4.478-10 10v9.759c0 5.523 4.477 10 10 10s10-4.477 10-10v-9.759c0-5.522-4.477-10-10-10z"/><path d="m148.809 332.92c-2.375 2.376-5.533 3.685-8.892 3.685-3.358 0-6.517-1.309-8.892-3.685-3.905-3.905-10.236-3.907-14.142-.002s-3.906 10.236-.002 14.142c6.153 6.154 14.334 9.544 23.036 9.544s16.883-3.39 23.036-9.544c3.905-3.906 3.903-10.238-.003-14.142-3.904-3.903-10.236-3.903-14.141.002z"/></g></g></g></g></svg>