<svg id="Capa_1" enable-background="new 0 0 512 512" height="512" viewBox="0 0 512 512" width="512" xmlns="http://www.w3.org/2000/svg"><g><g><path d="m256 259.035h-15v-170.702h15l10 68.334z" fill="#6aca57"/></g><g><path d="m256 88.333h15v170.701h-15z" fill="#5eb04c"/></g><g><path d="m192.266 166.643h-6.454v30h6.454c26.872 0 48.734 21.862 48.734 48.734v10.623h15l10-25.333-10-31.437c-14.322-19.725-37.548-32.587-63.734-32.587z" fill="#78e462"/></g><g><path d="m319.695 166.643c-26.162 0-49.37 12.838-63.695 32.532v56.825h14.961v-10.623c0-26.872 21.862-48.734 48.734-48.734h6.454v-30z" fill="#6aca57"/></g><g><path d="m125.827 314.574 8.135 197.426h122.038l20-114-20-103.426z" fill="#713b1c"/><path d="m386.173 314.574-130.173-20v217.426h122.038z" fill="#462714"/></g><path d="m256 314.574h-151.787v-63.734h151.787l20 31.867z" fill="#9d5025"/><path d="m256 96.528h-123.043c-33.137 0-60-26.863-60-60v-36.528h123.043c33.137 0 60 26.863 60 60l10 14.357z" fill="#78e462"/><path d="m256 96.528h123.043c33.137 0 60-26.863 60-60v-36.528h-123.043c-33.137 0-60 26.863-60 60z" fill="#6aca57"/><path d="m256 250.84h151.787v63.734h-151.787z" fill="#713b1c"/></g></svg>