<?xml version="1.0" encoding="iso-8859-1"?>
<!-- Generator: Adobe Illustrator 19.0.0, SVG Export Plug-In . SVG Version: 6.00 Build 0)  -->
<svg version="1.1" id="Capa_1" xmlns="http://www.w3.org/2000/svg" xmlns:xlink="http://www.w3.org/1999/xlink" x="0px" y="0px"
	 viewBox="0 0 496 496" style="enable-background:new 0 0 496 496;" xml:space="preserve">
<g>
	<path style="fill:#F0BC5E;" d="M484.736,360.624l-19.2-33.256L424,336l-12.8-40h-38.4L360,336l-41.536-8.624l-19.2,33.256L328,392
		l-28.736,31.376l19.2,33.256L360,448l12.8,40h38.4l12.8-40l41.536,8.624l19.2-33.256L456,392L484.736,360.624z M408,424h-32l-24-32
		l24-32h32l24,32L408,424z"/>
	<path style="fill:#F0BC5E;" d="M279.648,415.992c-11.304-0.016-21.824-0.616-31.648-1.656l-16-2.152
		C179.776,403.696,147.504,384,112,384c-29.176,0-45.584,12.768-52.328,19.68c-0.32,0.264-0.6,0.512-0.92,0.776
		C57,410.136,56,416.04,56,422.016c0,9.448,2.352,18.672,6.632,27.024c0.456-0.352,0.904-0.68,1.368-1.04c0,0,16-24,48-24
		c31.56,0,94.264,31.072,157.384,31.92l0.64-0.96c6.504-9.752,9.976-21.216,9.976-32.944C280,420,279.856,417.992,279.648,415.992z"
		/>
	<path style="fill:#F0BC5E;" d="M168,0C101.832,0,48,53.832,48,120v112c0,22.056,17.944,40,40,40h32h8v-10.712
		c-19.48-11.272-33.768-30.52-38.392-53.288H88c-17.672,0-32-14.328-32-32s14.328-32,32-32v-24l14.696,7.352
		C114.08,133.04,126.624,136,139.344,136h2.712c21.728,0,42.576-8.632,57.944-24c10,14.992,26.824,24,44.848,24H248v8
		c17.672,0,32,14.328,32,32s-14.328,32-32,32h-1.608c-4.624,22.768-18.912,42.016-38.392,53.288V272h8h32c22.056,0,40-17.944,40-40
		V120C288,53.832,234.168,0,168,0z"/>
</g>
<path d="M392,288c-29.616,0-56.304,12.504-75.264,32.432c-5.584-4.88-11.936-8.608-19.024-10.96L216,282.232v-16.576
	c17.68-11.56,30.912-29.304,36.712-50.136C272.528,213.16,288,196.44,288,176c0-19.312-13.768-35.472-32-39.192V104h-16v23.704
	c-13.496-1.424-25.72-8.696-33.344-20.136l-5.416-8.12l-6.896,6.896C180.376,120.312,161.816,128,142.064,128h-2.72
	c-11.416,0-22.848-2.696-33.072-7.808L96,115.056V104H80v32.808c-18.232,3.72-32,19.88-32,39.192c0,20.44,15.472,37.16,35.288,39.52
	c5.792,20.84,19.032,38.576,36.712,50.136v16.576L38.288,309.48C15.392,317.104,0,338.456,0,362.592V496h336v-16.504
	c16.184,10.4,35.376,16.504,56,16.504c57.344,0,104-46.656,104-104S449.344,288,392,288z M480,392c0,4.48-0.44,8.856-1.096,13.16
	L466.856,392l12.056-13.16C479.56,383.144,480,387.52,480,392z M323.688,336.632l31.464,6.528l11.048,16.568L348,384h-16.48
	l-21.576-23.552C313.296,351.776,317.92,343.736,323.688,336.632z M354.576,326.704l-17.192-3.576
	c6.76-5.376,14.328-9.752,22.488-12.968L354.576,326.704z M304,392c0-4.48,0.44-8.856,1.096-13.16L317.144,392l-12.056,13.16
	C304.44,400.856,304,396.48,304,392z M331.52,400H348l18.2,24.272l-11.048,16.568l-31.464,6.528
	c-5.768-7.104-10.392-15.144-13.744-23.816L331.52,400z M354.576,457.296l5.296,16.544c-8.16-3.216-15.728-7.592-22.488-12.968
	L354.576,457.296z M380,416l-18-24l18-24h24l18,24l-18,24H380z M452.48,384H436l-18.2-24.272l11.048-16.568l31.464-6.528
	c5.768,7.104,10.392,15.144,13.744,23.816L452.48,384z M429.424,326.704l-5.296-16.544c8.16,3.216,15.728,7.592,22.488,12.968
	L429.424,326.704z M429.424,457.296l17.192,3.576c-6.76,5.376-14.328,9.752-22.488,12.968L429.424,457.296z M428.84,440.84
	l-11.048-16.568L436,400h16.48l21.576,23.552c-3.352,8.672-7.976,16.712-13.744,23.816L428.84,440.84z M405.744,305.184
	l9.456,29.584L403.72,352h-23.44l-11.48-17.232l9.456-29.584C382.744,304.472,387.312,304,392,304S401.256,304.472,405.744,305.184z
	 M272,176c0,10.536-6.872,19.416-16.336,22.632c0.168-2.2,0.336-4.392,0.336-6.632v-38.528C265.288,156.784,272,165.584,272,176z
	 M64,176c0-10.416,6.712-19.216,16-22.528V192c0,2.24,0.168,4.432,0.336,6.632C70.872,195.416,64,186.536,64,176z M96,192v-59.048
	l3.12,1.56c12.424,6.208,26.336,9.488,40.224,9.488h2.72c21,0,40.904-7.16,56.936-20.304c10.56,11.664,25.192,18.816,41,20.048V192
	c0,39.704-32.296,72-72,72S96,231.704,96,192z M168,280c11.296,0,22.064-2.216,32-6.112v12.568C198.264,290.28,190.448,304,168,304
	c-22.28,0-30.176-13.616-32-17.568v-12.544C145.936,277.784,156.704,280,168,280z M43.352,324.648l80.672-26.888
	C129.52,306.496,142.184,320,168,320s38.48-13.504,43.976-22.24l80.68,26.896c5.216,1.736,9.832,4.568,13.896,8.208
	C294.888,349.672,288,370.032,288,392c0,5.456,0.552,10.768,1.36,16h-2.92c-1.192-5.576-3.016-11.016-5.56-16.112l-2.568-5.16
	C274.176,378.472,272,369.224,272,360h-16c0,11.696,2.768,23.416,8,33.88l2.568,5.16c3.56,7.096,5.432,15.04,5.432,22.976
	c0,10.176-2.984,20.04-8.632,28.504L256,461.576V480H80v-18.424l-7.368-11.056C66.984,442.056,64,432.192,64,422.016
	c0-7.936,1.872-15.88,5.432-22.984L72,393.888c5.232-10.48,8-22.192,8-33.888H64c0,9.224-2.176,18.472-6.312,26.744l-2.568,5.136
	c-2.552,5.096-4.376,10.544-5.568,16.12H16v-45.408C16,345.352,26.992,330.104,43.352,324.648z M16,424h32.144
	c0.368,12.64,4.136,24.856,11.176,35.4l4.68,7.024V480H16V424z M320,480h-48v-13.576l4.68-7.024
	c7.032-10.544,10.8-22.76,11.176-35.4h5.232c5.344,16.48,14.704,31.128,26.912,42.872L320,480L320,480z M378.256,478.816
	l-9.456-29.584L380.28,432h23.44l11.488,17.232l-9.456,29.584C401.256,479.528,396.688,480,392,480S382.744,479.528,378.256,478.816
	z"/>
<circle cx="208" cy="168" r="8"/>
<circle cx="128" cy="168" r="8"/>
<path d="M200,208h-16c0,8.824-7.176,16-16,16s-16-7.176-16-16h-16c0,17.648,14.352,32,32,32S200,225.648,200,208z"/>
<g>
</g>
<g>
</g>
<g>
</g>
<g>
</g>
<g>
</g>
<g>
</g>
<g>
</g>
<g>
</g>
<g>
</g>
<g>
</g>
<g>
</g>
<g>
</g>
<g>
</g>
<g>
</g>
<g>
</g>
</svg>
